<svg version="1.2" xmlns="http://www.w3.org/2000/svg" viewBox="0 0 4975 4975" width="400" height="400">
	<title>file</title>
	<style>
		.s0 { fill: #1ba1d4 } 
		.s1 { fill: #231f20 } 
		.s2 { fill: #fefefe } 
	</style>
	<g id="Layer1">
		<g id="&lt;Group&gt;">
			<path id="&lt;Path&gt;" fill-rule="evenodd" class="s0" d="m4757.3 4340.4c0 232.2-190 422.3-422.3 422.3h-3784.5c-232.3 0-422.3-190.1-422.3-422.3v-3784.5c0-232.3 190-422.4 422.3-422.4h3784.5c232.3 0 422.3 190.1 422.3 422.4z"/>
			<g id="&lt;Group&gt;">
				<g id="&lt;Group&gt;">
					<path id="&lt;Path&gt;" fill-rule="evenodd" class="s1" d="m1276.8 3848.9l-493.2-1305.7 2727.7-172.2 571.2 1300.7z"/>
					<path id="&lt;Path&gt;" fill-rule="evenodd" class="s2" d="m3327.3 3461.8l-358.7-838.1-48.3 3.1 358.8 838.1z"/>
					<path id="&lt;Path&gt;" fill-rule="evenodd" class="s2" d="m3055.4 3479l-358.7-838.1-48.3 3 358.9 838.1z"/>
					<path id="&lt;Path&gt;" fill-rule="evenodd" class="s2" d="m2783.5 3496.1l-358.6-838.1-48.4 3.1 358.9 838.1z"/>
					<path id="&lt;Path&gt;" fill-rule="evenodd" class="s2" d="m2511.6 3513.3l-358.6-838.1-48.3 3.1 358.8 838.1z"/>
					<path id="&lt;Path&gt;" fill-rule="evenodd" class="s2" d="m2239.8 3530.5l-358.7-838.1-48.3 3 358.8 838.1z"/>
					<path id="&lt;Path&gt;" fill-rule="evenodd" class="s2" d="m1967.9 3547.6l-358.6-838.1-48.4 3.1 358.9 838.1z"/>
					<path id="&lt;Path&gt;" fill-rule="evenodd" class="s2" d="m1696 3564.8l-358.6-838.1-48.3 3.1 358.8 838z"/>
				</g>
				<g id="&lt;Group&gt;">
					<path id="&lt;Path&gt;" fill-rule="evenodd" class="s2" d="m1352.1 3343l-515.5-1364.8 2789.5-176.1 597 1359.6z"/>
					<path id="&lt;Path&gt;" fill-rule="evenodd" class="s1" d="m1372.5 3311.4l-493.3-1305.6 2727.8-172.2 571.1 1300.7z"/>
					<path id="&lt;Path&gt;" fill-rule="evenodd" class="s2" d="m3445.1 2907.6l-358.6-838.1-48.3 3 358.8 838.1z"/>
					<path id="&lt;Path&gt;" fill-rule="evenodd" class="s2" d="m3173.3 2924.8l-358.7-838.2-48.3 3.1 358.8 838.1z"/>
					<path id="&lt;Path&gt;" fill-rule="evenodd" class="s2" d="m2901.4 2941.9l-358.7-838.1-48.3 3.1 358.9 838.1z"/>
					<path id="&lt;Path&gt;" fill-rule="evenodd" class="s2" d="m2629.5 2959.1l-358.6-838.1-48.4 3 358.9 838.1z"/>
					<path id="&lt;Path&gt;" fill-rule="evenodd" class="s2" d="m2357.6 2976.2l-358.6-838.1-48.3 3.1 358.8 838.1z"/>
					<path id="&lt;Path&gt;" fill-rule="evenodd" class="s2" d="m2085.8 2993.4l-358.7-838.1-48.3 3.1 358.8 838.1z"/>
					<path id="&lt;Path&gt;" fill-rule="evenodd" class="s2" d="m1813.9 3010.6l-358.6-838.1-48.4 3 358.9 838.1z"/>
				</g>
				<g id="&lt;Group&gt;">
					<path id="&lt;Path&gt;" fill-rule="evenodd" class="s2" d="m1471.4 2757.1l-515.5-1364.7 2789.6-176.1 596.9 1359.5z"/>
					<path id="&lt;Path&gt;" fill-rule="evenodd" class="s1" d="m1491.8 2725.5l-493.2-1305.6 2727.7-172.2 571.2 1300.7z"/>
					<path id="&lt;Path&gt;" fill-rule="evenodd" class="s2" d="m3555.3 2324.2l-358.7-838.1-48.3 3 358.8 838.1z"/>
					<path id="&lt;Path&gt;" fill-rule="evenodd" class="s2" d="m3283.4 2341.3l-358.6-838.1-48.4 3.1 358.9 838.1z"/>
					<path id="&lt;Path&gt;" fill-rule="evenodd" class="s2" d="m3011.5 2358.5l-358.6-838.1-48.3 3 358.8 838.1z"/>
					<path id="&lt;Path&gt;" fill-rule="evenodd" class="s2" d="m2739.7 2375.7l-358.7-838.1-48.3 3 358.8 838.1z"/>
					<path id="&lt;Path&gt;" fill-rule="evenodd" class="s2" d="m2467.8 2392.8l-358.6-838.1-48.4 3.1 358.9 838.1z"/>
					<path id="&lt;Path&gt;" fill-rule="evenodd" class="s2" d="m2195.9 2410l-358.6-838.1-48.3 3 358.8 838.1z"/>
					<path id="&lt;Path&gt;" fill-rule="evenodd" class="s2" d="m1924 2427.2l-358.6-838.1-48.3 3 358.8 838.1z"/>
				</g>
			</g>
		</g>
	</g>
</svg>