<svg version="1.2" xmlns="http://www.w3.org/2000/svg" viewBox="0 0 4975 4975" width="400" height="400">
	<title>file</title>
	<style>
		.s0 { fill: #1ba1d4 } 
		.s1 { fill: #fefefe } 
		.s2 { fill: #231f20 } 
		.s3 { fill: #ffffff } 
		.s4 { fill: #000000 } 
	</style>
	<g id="Layer1">
		<g id="&lt;Group&gt;">
			<path id="&lt;Path&gt;" fill-rule="evenodd" class="s0" d="m4757.3 4340.4c0 232.2-190 422.3-422.3 422.3h-3784.5c-232.3 0-422.3-190.1-422.3-422.3v-3784.5c0-232.3 190-422.4 422.3-422.4h3784.5c232.3 0 422.3 190.1 422.3 422.4z"/>
			<g id="&lt;Group&gt;">
				<g id="&lt;Group&gt;">
					<g id="&lt;Group&gt;">
						<path id="&lt;Path&gt;" fill-rule="evenodd" class="s1" d="m1476.2 1710.1l-32.5 3.9-32.4 4c-18 2.2-32.4 21.7-32.2 43.7l0.5 82.7c0.1 21.9 14.8 37.9 32.7 35.8l32.5-4 32.5-4c17.9-2.1 32.4-21.7 32.2-43.6l-0.5-82.7c-0.2-22-14.8-38-32.8-35.8z"/>
						<path id="&lt;Path&gt;" fill-rule="evenodd" class="s1" d="m1444.8 1876.2c-1.2 4.6-2.6 10.1-3.9 16.5l-116.1 561.2c-9.4 45.6-1.2 113.4 18.4 150.6l86.1 163.8c8.1 15.5 15.6 23.1 21.5 23.6 5.9-1.9 13.3-11.4 21.2-28.8l83.9-184.5c19-41.9 26.4-111.5 16.3-154.8l-123.3-532c-1.4-6.2-2.8-11.3-4.1-15.6z"/>
						<g id="&lt;Group&gt;">
							<path id="&lt;Path&gt;" fill-rule="evenodd" class="s2" d="m1448.8 933.4c-176.4 24.8-245.5 114.9-245.9 311 0 2.6 0.4 144.9 51.1 258.8 37.5 84.4 109.4 152.4 193.5 140.6 93.6-13.2 165.4-116.6 203.1-222.8 41.7-117.6 44.4-238.4 44.4-239.9 0.3-196.2-69.8-272.5-246.2-247.7z"/>
						</g>
					</g>
					<g id="&lt;Group&gt;">
						<g id="&lt;Group&gt;">
							<path id="&lt;Path&gt;" fill-rule="evenodd" class="s2" d="m3678 864.2c176.4 24.8 245.5 114.8 245.9 311 0 2.5-0.4 144.8-51.1 258.7-37.5 84.4-109.4 152.4-193.5 140.6-93.6-13.1-165.3-116.6-203.1-222.8-41.7-117.6-44.3-238.4-44.3-239.8-0.4-196.2 69.7-272.5 246.1-247.7z"/>
						</g>
						<path id="&lt;Path&gt;" fill-rule="evenodd" class="s1" d="m3627.8 1634.4l32.5 4 32.4 3.9c18 2.2 32.4 21.8 32.2 43.8l-0.5 82.9c-0.1 21.9-14.8 37.9-32.7 35.8l-32.5-4-32.5-4c-17.9-2.1-32.4-21.7-32.2-43.7l0.5-82.8c0.2-22 14.8-38.1 32.8-35.9z"/>
						<path id="&lt;Path&gt;" fill-rule="evenodd" class="s1" d="m3659.2 1800.8c1.2 4.6 2.6 10.1 3.9 16.6l116.1 562.1c9.4 45.6 1.2 113.5-18.4 150.7l-86.1 164.1c-8.1 15.6-15.6 23.2-21.5 23.7-5.9-1.9-13.3-11.4-21.2-28.9l-83.9-184.8c-19-41.9-26.4-111.7-16.3-155l123.3-532.9c1.4-6.1 2.8-11.3 4.1-15.6z"/>
					</g>
				</g>
				<g id="&lt;Group&gt;">
					<path id="&lt;Path&gt;" fill-rule="evenodd" class="s3" d="m2552 3530.7c-892.4 0-1626.1-209.2-1711.2-477.1-4.6-14.1-7.2-28.5-8-42.9-0.2 3-0.3 6.1-0.3 9.2 0 14.5 1.9 28.8 5.6 43 71 272.2 811.2 486.3 1713.9 486.3 902.7 0 1643-214.1 1713.9-486.4 3.7-14.1 5.6-28.5 5.6-42.9q0-4.6-0.2-9.2-1.3 21.6-8 42.8c-85.1 267.9-818.8 477.2-1711.3 477.2z"/>
					<g id="&lt;Group&gt;">
						<path id="&lt;Path&gt;" fill-rule="evenodd" class="s2" d="m3350.3 2507.1l13.4-424.5-3 426.2c72.5 11.9 141.9 25.4 207.7 40.2l-20.3-44.7c-19-41.9-26.4-111.7-16.3-155l123.3-532.9c1.4-6.1 2.8-11.3 4.1-15.6l-32.5-4c-17.9-2.1-32.4-21.7-32.2-43.7l0.5-82.8c0.2-22 14.8-38.1 32.8-35.9l32.5 4 32.4 3.9c18 2.2 32.4 21.8 32.2 43.8l-0.5 82.9c-0.1 21.9-14.8 37.9-32.7 35.8l-32.5-4c1.2 4.6 2.6 10.1 3.9 16.6l116.1 562.1c9.4 45.6 1.2 113.5-18.4 150.7l-31.5 60c76.2 22.1 145.8 46.2 207.9 72.1l17.5-504.2 0.2 511.8c98.7 42.8 177.3 90.3 231.5 141.1l-22.5-905.1c-6-52.8-33.8-97.6-70.4-121.4-43.3-31.8-249.4-177.5-426.9-202.4-2.4-0.3-4.7-0.6-7-0.9-198.1-24.2-431.9 98.6-431.9 98.6h0.3c-36.1 15.3-63.7 52.9-70.3 103.4l-33.7 693.5c78.2 8.5 153.7 18.7 226.3 30.4z"/>
					</g>
					<g id="&lt;Group&gt;">
						<path id="&lt;Path&gt;" fill-rule="evenodd" class="s2" d="m1149.1 2669.9l0.2-437 15 430.5c53.5-22.5 112.7-43.6 176.8-63.2-18-37.9-25.4-102.3-16.3-146.3l116.1-561.2c1.3-6.4 2.7-11.9 3.9-16.5l-32.5 4c-17.9 2.1-32.6-13.9-32.7-35.8l-0.5-82.7c-0.2-22 14.2-41.5 32.2-43.7l32.4-4 32.5-3.9c18-2.2 32.6 13.8 32.8 35.8l0.5 82.7c0.2 21.9-14.3 41.5-32.2 43.6l-32.5 4c1.3 4.3 2.7 9.4 4.1 15.6l123.3 532c7.5 32.2 5.3 79-4.1 118.1 55.9-12.1 114.2-23.1 174.7-33l-2.5-351.3 11.1 349.9c72.1-11.7 147.3-21.9 225-30.4l-30.1-618.5c-6.6-50.4-34.2-87.9-70.3-103.2h0.3c0 0-233.8-122.6-431.9-98.5q-3.5 0.4-7 0.9c-177.5 24.9-383.6 170.3-426.9 202.1-36.6 23.8-64.3 68.5-70.4 121.2l-20.6 828.2c54.1-50.2 132.1-97.1 229.6-139.4z"/>
					</g>
				</g>
				<g id="&lt;Group&gt;">
					<g id="&lt;Group&gt;">
						<path id="&lt;Path&gt;" fill-rule="evenodd" class="s4" d="m1809.6 3497.5c-538.2-79.5-921.4-242.6-971.5-434.6-1.3 5-2.5 10.1-3.3 15.2v55.3c33.1 198.2 420.5 367.6 971.1 449.3z"/>
						<path id="&lt;Path&gt;" fill-rule="evenodd" class="s4" d="m4265.9 3062.8c-50 191.9-432.3 354.8-969.6 434.4l3.9 85.2c574.9-85.6 971.3-266.9 971.3-476.7 0-14.4-1.9-28.7-5.6-42.9z"/>
					</g>
					<path id="&lt;Path&gt;" fill-rule="evenodd" class="s2" d="m2124.3 4061.3l18.4-782.6v782.6h818.5v-786.4l21.6 786.4h316l-49.8-1096.4c-8.7-57.9-46.5-104.3-96.3-126.5q0.1 0 0.3 0c0 0-330-175-606.4-170.8-245.9 3.6-532.3 139.8-592.6 169.9-50.9 21.8-89.7 68.6-98.5 127.4l-46.9 1096.4z"/>
					<g id="&lt;Group&gt;">
						<path id="&lt;Path&gt;" fill-rule="evenodd" class="s4" d="m4271 2988.8c-19.9-262-658.3-476.9-1483.1-511.8-22.3 46.5-50.3 86.7-82.1 117.6-24.5 23.8-51.1 41.6-78.9 53.2 100.4 9.1 213.9 37.1 338.7 83.5 115 42.8 194.9 85 198.2 86.7v0.1c58.2 26.7 98.5 80.1 108.1 143.4l0.1 1.2 23.5 516.1c529.1-78.2 908.1-237.3 967.8-425.3q6.7-21.2 8-42.8 0.2-4.6 0.2-9.3 0-6.3-0.5-12.6z"/>
						<path id="&lt;Path&gt;" fill-rule="evenodd" class="s4" d="m2406.9 2605c-38.2-32.7-70.7-76.8-94.3-127.8-807.4 34.6-1435.3 241.8-1477.8 496.6v18.5 2.1q-0.1-0.5-0.2-1.1-0.7-4.6-1.2-9.2-0.2 2.3-0.4 4.6-0.5 6.4-0.5 12.7c0 3.1 0.1 6.2 0.3 9.3 0.8 14.4 3.4 28.8 8 42.9 59.8 188.2 439.6 347.4 969.6 425.5l22.1-516.4 0.1-1.2c9.8-64.8 51.5-119 111.7-145 52.6-26.2 300-144 533.3-167.9-24.5-9.8-48.3-24.4-70.7-43.6z"/>
					</g>
					<path id="&lt;Path&gt;" fill-rule="evenodd" class="s2" d="m2551.2 2638.7c-94.4 0-175.4-81.3-217.7-174.7-57.2-126-58-274.2-58-276.9 0-204.1 77.5-287.8 275.7-287.8 198.2 0 277.2 89.7 277.2 293.9 0 1.5-2.7 126.9-49.4 243.3-42.2 105-122.6 202.2-227.8 202.2z"/>
				</g>
			</g>
		</g>
	</g>
</svg>