<svg version="1.2" xmlns="http://www.w3.org/2000/svg" viewBox="0 0 4975 4975" width="400" height="400">
	<title>file</title>
	<style>
		.s0 { fill: #1ba1d4 } 
		.s1 { fill: #231f20 } 
	</style>
	<g id="Layer1">
		<g id="&lt;Group&gt;">
			<path id="&lt;Path&gt;" fill-rule="evenodd" class="s0" d="m4757.3 4340.4c0 232.2-190 422.3-422.3 422.3h-3784.5c-232.3 0-422.3-190.1-422.3-422.3v-3784.5c0-232.3 190-422.4 422.3-422.4h3784.5c232.3 0 422.3 190.1 422.3 422.4z"/>
			<g id="&lt;Group&gt;">
				<g id="&lt;Group&gt;">
					<path id="&lt;Compound Path&gt;" fill-rule="evenodd" class="s1" d="m967 2808.2q6.8 0.9 13.5 0.9c50.7 0 94.7-37.6 101.5-89.2l26.6-965.7v846.9 7.7 1325.6c0 63.7 51.7 115.4 115.4 115.4 63.7 0 115.4-51.7 115.4-115.4v-1196.1q-0.4-1.9-0.4-3.9c0-12.6 10.2-22.8 22.8-22.8 12.6 0 22.9 10.2 22.9 22.8h0.8v1200c0 63.7 51.7 115.4 115.4 115.4 63.7 0 115.4-51.7 115.4-115.4v-1325.6q0 0 0 0v-852.2l22.6 960.3c5.3 52.9 49.9 92.3 101.9 92.3q5.1 0 10.4-0.5c56.3-5.7 97.4-56 91.8-112.4l-48.5-1134.4c-5.5-36.5-29.6-65.5-61.2-79-37.3-18.7-215-103.2-367.6-105.4-171.4-2.6-376.1 106-376.1 106q0.1 0 0.2 0c-30.9 13.7-54.3 42.5-59.7 78.4l-51.4 1131.2c-7.4 56.2 32.1 107.7 88.3 115.1zm287.3-881.4l102.9-384.1c1.2-4.4 2.3-8.2 3.4-11.3h-27.9c-15.4 0-27.9-12.5-27.9-27.9v-58.1c0-15.4 12.5-27.9 27.9-27.9h27.9 27.9c15.4 0 27.9 12.5 27.9 27.9v58.1c0 15.4-12.5 27.9-27.9 27.9h-27.9c1.1 3.1 2.3 6.9 3.5 11.3l102.8 384.1c8.4 31.2 1.7 79.4-14.9 107.2l-73 122.4c-6.9 11.6-13.3 17.6-18.4 18.4-5.1-0.8-11.4-6.8-18.3-18.4l-73-122.4c-16.6-27.8-23.3-76-15-107.2z"/>
					<path id="&lt;Path&gt;" fill-rule="evenodd" class="s1" d="m1361.2 1360.4c66.7 0 124-57.6 154-123.6 40.4-89.2 41-194 41-195.9 0-144.4-54.8-203.6-195-203.6-140.2 0-196.1 63.5-196.1 207.9 0 1.1 1.9 89.8 34.9 172.1 29.9 74.3 86.7 143.1 161.2 143.1z"/>
				</g>
			</g>
			<g id="&lt;Group&gt;">
				<g id="&lt;Group&gt;">
					<path id="&lt;Compound Path&gt;" fill-rule="evenodd" class="s1" d="m4004.8 2693.1l-51.4-1131.2c-5.4-35.9-28.9-64.7-59.8-78.4q0.1 0 0.2 0c0 0-204.7-108.6-376.1-106-152.5 2.2-330.2 86.7-367.6 105.4-31.6 13.5-55.6 42.5-61.1 79l-48.5 1134.4c-5.7 56.4 35.4 106.7 91.8 112.4q5.2 0.5 10.4 0.5c52 0 96.6-39.4 101.9-92.3l22.6-960.3v852.2q0 0 0 0v1325.6c0 63.7 51.6 115.4 115.4 115.4 63.7 0 115.3-51.7 115.3-115.4v-1200h0.9c0-12.6 10.2-22.8 22.8-22.8 12.6 0 22.9 10.2 22.9 22.8q-0.1 2-0.4 3.9v1196.1c0 63.7 51.7 115.4 115.4 115.4 63.7 0 115.4-51.7 115.4-115.4v-1325.6-7.7-846.9l26.5 965.7c6.8 51.6 50.9 89.2 101.6 89.2q6.7 0 13.5-0.9c56.1-7.4 95.7-58.9 88.3-115.1zm-390.6-659.1l-73 122.4c-6.9 11.6-13.3 17.6-18.4 18.4-5.1-0.8-11.4-6.8-18.3-18.4l-73-122.4c-16.6-27.8-23.3-76-15-107.2l102.9-384.1c1.2-4.4 2.3-8.2 3.4-11.3h-27.9c-15.4 0-27.9-12.5-27.9-27.9v-58.1c0-15.4 12.5-27.9 27.9-27.9h27.9 27.9c15.4 0 27.9 12.5 27.9 27.9v58.1c0 15.4-12.5 27.9-27.9 27.9h-27.9c1.1 3.1 2.3 6.9 3.5 11.3l102.8 384.1c8.4 31.2 1.7 79.4-14.9 107.2z"/>
					<path id="&lt;Path&gt;" fill-rule="evenodd" class="s1" d="m3522.3 1360.4c-66.8 0-124.1-57.6-154-123.6-40.5-89.2-41-194-41-195.9 0-144.4 54.8-203.6 195-203.6 140.2 0 196.1 63.5 196.1 207.9 0 1.1-1.9 89.8-35 172.1-29.8 74.3-86.6 143.1-161.1 143.1z"/>
				</g>
			</g>
			<g id="&lt;Group&gt;">
				<g id="&lt;Group&gt;">
					<path id="&lt;Compound Path&gt;" fill-rule="evenodd" class="s1" d="m3016.7 2737.8l-61.2-1348.1c-6.4-42.8-34.4-77.1-71.2-93.5q0.1 0 0.2 0c0 0-243.9-129.4-448.2-126.3-181.8 2.7-393.6 103.4-438.1 125.6-37.7 16.1-66.3 50.8-72.9 94.2l-57.8 1352c-6.7 67.2 42.2 127.1 109.4 133.9q6.3 0.6 12.4 0.6c62 0 115.1-47 121.5-110l26.9-1144.5v1015.6q0 0.1 0 0.1v1579.8c0 75.9 61.5 137.5 137.5 137.5 75.9 0 137.5-61.6 137.5-137.5v-1430.1h1c0-15.1 12.2-27.2 27.2-27.2 15.1 0 27.2 12.1 27.2 27.2 0 1.6-0.1 3.1-0.4 4.6v1425.5c0 75.9 61.6 137.5 137.5 137.5 76 0 137.5-61.6 137.5-137.5v-1579.9-9.1-1009.3l31.7 1150.8c8.1 61.6 60.6 106.3 121 106.3q8 0 16.1-1c66.9-8.8 114.1-70.2 105.2-137.2zm-465.5-785.5l-87 145.9c-8.2 13.8-15.8 21-21.8 22-6.1-1-13.7-8.2-21.9-22l-87-145.9c-19.8-33-27.8-90.6-17.8-127.8l122.6-457.7c1.4-5.3 2.7-9.7 4.1-13.4h-33.3c-18.4 0-33.3-14.9-33.3-33.3v-69.3c0-18.3 14.9-33.2 33.3-33.2h33.3 33.2c18.4 0 33.3 14.9 33.3 33.2v69.3c0 18.4-14.9 33.3-33.3 33.3h-33.2c1.3 3.7 2.7 8.1 4.1 13.4l122.5 457.7c10 37.2 2 94.8-17.8 127.8z"/>
					<path id="&lt;Path&gt;" fill-rule="evenodd" class="s1" d="m2441.7 1149.5c-79.6 0-147.8-68.5-183.5-147.3-48.2-106.2-48.9-231.2-48.9-233.4 0-172.1 65.3-242.6 232.4-242.6 167.1 0 233.7 75.6 233.7 247.8 0 1.2-2.3 106.9-41.6 205-35.6 88.6-103.3 170.5-192.1 170.5z"/>
				</g>
			</g>
		</g>
	</g>
</svg>