<svg version="1.2" xmlns="http://www.w3.org/2000/svg" viewBox="0 0 4975 4975" width="400" height="400">
	<title>file</title>
	<style>
		.s0 { fill: #e6e7e8 } 
		.s1 { fill: #1ba1d4 } 
		.s2 { fill: #231f20 } 
	</style>
	<g id="Layer1">
		<g id="&lt;Group&gt;">
			<path id="&lt;Path&gt;" class="s0" d="m2407.3 1096.3c0 53.1-43.5 96.6-96.6 96.6h-866.1c-53.2 0-96.7-43.5-96.7-96.6v-866.1c0-53.2 43.5-96.7 96.7-96.7h866.1c53.1 0 96.6 43.5 96.6 96.7z"/>
			<path id="&lt;Path&gt;" fill-rule="evenodd" class="s1" d="m4757.3 4340.4c0 232.2-190 422.3-422.3 422.3h-3784.5c-232.3 0-422.3-190.1-422.3-422.3v-3784.5c0-232.3 190-422.4 422.3-422.4h3784.5c232.3 0 422.3 190.1 422.3 422.4z"/>
			<g id="&lt;Group&gt;">
				<g id="&lt;Group&gt;">
					<path id="&lt;Path&gt;" fill-rule="evenodd" class="s2" d="m2488.2 1892.7c-215.3 0-400-185.6-496.6-398.5-130.4-287.5-132.2-625.6-132.2-631.6 0-465.8 176.7-656.6 628.8-656.6 452.1 0 632.3 204.7 632.3 670.5 0 3.4-6.2 289.4-112.7 554.8-96.2 239.6-279.5 461.4-519.6 461.4z"/>
					<g id="&lt;Group&gt;">
						<g id="&lt;Group&gt;">
							<path id="&lt;Path&gt;" fill-rule="evenodd" class="s2" d="m1130.7 2912.9c0-85.8 70.2-156 156-156h1133.4l57.3-214.1c4.3-16 8.5-29.5 12.5-40.9h-101.2c-55.9 0-101.3-45.3-101.3-101.2v-210.9c0-56 45.4-101.3 101.3-101.3h101.2 101.3c55.9 0 101.2 45.3 101.2 101.3v210.9c0 55.9-45.3 101.2-101.2 101.2h-101.3c4.1 11.4 8.2 24.9 12.5 40.9l57.4 214.1h1076.3c85.7 0 155.9 70.2 155.9 156l-104 1543.6h448.1l-83.9-1843.8c-19.6-130.4-104.7-234.8-216.8-284.8h0.8c0 0-742.8-393.9-1364.8-384.5-553.4 8.3-1198.2 314.8-1333.8 382.4-114.6 49-201.9 154.5-221.8 286.9l-78.8 1843.8h397.7z"/>
							<path id="&lt;Path&gt;" fill-rule="evenodd" class="s2" d="m3740 2959.6l-103.9 1496.9h-2349.4l-104-1496.9c0-85.7 70.2-155.9 155.9-155.9h2245.5c85.7 0 155.9 70.2 155.9 155.9z"/>
						</g>
						<path id="&lt;Path&gt;" fill-rule="evenodd" class="s2" d="m3740 4603.1c0 15.6-18.6 28.2-41.6 28.2h-2474.1c-23 0-41.6-12.6-41.6-28.2v-63.1c0-15.6 18.6-28.2 41.6-28.2h2474.1c23 0 41.6 12.6 41.6 28.2z"/>
					</g>
				</g>
			</g>
		</g>
	</g>
</svg>